<!-- Generator: Adobe Illustrator 22.0.1, SVG Export Plug-In  -->
<svg version="1.1"
	 xmlns="http://www.w3.org/2000/svg" xmlns:xlink="http://www.w3.org/1999/xlink" xmlns:a="http://ns.adobe.com/AdobeSVGViewerExtensions/3.0/"
	 x="0px" y="0px" width="90.2px" height="89.7px" viewBox="0 0 90.2 89.7" style="enable-background:new 0 0 90.2 89.7;"
	 xml:space="preserve">
<style type="text/css">
	.st0{fill:#0B67D6;}
	.st1{fill:#2C2C2C;}
	.st2{fill:#FFFFFF;}
	.st3{fill:#35E1C4;}
</style>
<defs>
</defs>
<path class="st0" d="M35,43.2c12.1,0,21.8-9.3,21.8-21.4C56.8,9.7,46.7,0,35,0C23.3,0,13.2,9.3,13.2,21.4C13.2,33.5,23,43.2,35,43.2
	L35,43.2z"/>
<g>
	<path class="st0" d="M51.3,76.8c0.1-2.7-0.6-20.5,0.7-22.3c1.3-1.8,2.8-2.1,5.9-4.4c-3.3-2.7-7.2-4.8-11.5-6.2l-1.6-0.4L44,44.6
		C40.5,52,37.3,59,35.4,62.9C33.5,59,30.3,52,26.8,44.6l-0.8-1.2l-1.6,0.4C9.7,48.5,0,62.1,0,77.3v5.4c0,1.5,1.2,2.8,2.8,2.8h51.9
		c0,0-0.1-1.6,0.2-4.6C53.5,79.6,51.2,78,51.3,76.8z"/>
</g>
<path class="st1" d="M49.7,63"/>
<circle class="st2" cx="35" cy="71.8" r="8.3"/>
<path class="st3" d="M58.2,88.8V73.4l9.9,9.9l-8.5,6.2C59.1,89.9,58.2,89.5,58.2,88.8z"/>
<path class="st3" d="M86.8,88.8V73.4l-9.9,9.9l8.5,6.2C86,89.9,86.8,89.5,86.8,88.8z"/>
<path class="st0" d="M88.5,55.1l-14.6-8.3c-1-0.6-2.4-0.6-3.4,0L55.9,55c-1,0.6-1.7,1.7-1.7,2.9v16.4c0,1.1,0.7,2.3,1.7,2.9
	l14.6,8.3c1,0.6,2.4,0.6,3.4,0l14.5-8c1-0.6,1.7-1.7,1.7-2.9V58.1C90.2,56.8,89.5,55.7,88.5,55.1z"/>
<path class="st2" d="M65.8,58.7h3.6c0.3,0,0.5,0.2,0.5,0.5v6c0,0.5,0.6,0.7,1,0.4l5.8-6.7c0.1-0.1,0.3-0.2,0.4-0.2h5.5
	c0.5,0,0.7,0.5,0.4,0.9l-13,15.5c-0.1,0.1-0.3,0.2-0.4,0.2h-3.5c-0.3,0-0.6-0.3-0.5-0.6l0.3-14.4c0-0.2-0.1-0.4-0.2-0.5l-0.3-0.2
	C65,59.4,65.2,58.7,65.8,58.7z"/>
</svg>
